<?xml version="1.0" encoding="utf-8"?>
<!-- Generator: Adobe Illustrator 23.0.5, SVG Export Plug-In . SVG Version: 6.00 Build 0)  -->
<svg version="1.1" id="Layer_1" xmlns="http://www.w3.org/2000/svg" xmlns:xlink="http://www.w3.org/1999/xlink" x="0px" y="0px"
	 viewBox="0 0 256.13 63.62" style="enable-background:new 0 0 256.13 63.62;" xml:space="preserve">
<style type="text/css">
	.st0{fill:#FEBB12;}
	.st1{fill:#5D5D5D;}
</style>
<g>
	<g>
		<path class="st0" d="M10.14,26.01c-0.29,0.03-0.53,0.22-0.62,0.5c-0.09,0.28-0.01,0.58,0.21,0.77l7.82,6.87l-2.28,10.16
			c-0.06,0.28,0.05,0.58,0.28,0.75c0.23,0.17,0.55,0.19,0.8,0.04l8.95-5.31l8.96,5.31c0.25,0.15,0.56,0.13,0.8-0.04
			c0.23-0.17,0.35-0.46,0.28-0.75l-2.29-10.16l7.81-6.88c0.22-0.19,0.3-0.49,0.21-0.77c-0.09-0.28-0.33-0.47-0.62-0.5l-10.37-0.97
			l-4.13-9.56c-0.11-0.27-0.38-0.44-0.67-0.44s-0.55,0.17-0.67,0.44l-4.12,9.56L10.14,26.01z"/>
		<path class="st0" d="M45.66,26.63c-0.5,0.35-0.99,0.72-1.49,1.08l-1.46,1.11c-0.49,0.37-0.96,0.76-1.44,1.13
			c-0.97,0.75-1.89,1.54-2.84,2.31c-0.47,0.39-0.93,0.79-1.39,1.19l-1.39,1.19l-0.37,0.32l0.11,0.48c0.27,1.19,0.55,2.38,0.85,3.56
			c0.31,1.18,0.6,2.37,0.94,3.54c0.17,0.59,0.32,1.18,0.5,1.76l0.53,1.75c0.38,1.17,0.75,2.33,1.2,3.48
			c-0.09-1.23-0.25-2.44-0.41-3.66l-0.27-1.81c-0.09-0.6-0.2-1.2-0.3-1.81c-0.19-1.21-0.45-2.4-0.67-3.6
			c-0.21-1.04-0.43-2.07-0.66-3.11l1-0.9c0.45-0.41,0.91-0.81,1.36-1.23c0.89-0.84,1.79-1.66,2.66-2.52
			c0.43-0.43,0.88-0.85,1.31-1.29l1.28-1.31c0.42-0.45,0.84-0.89,1.26-1.34c0.41-0.45,0.82-0.91,1.22-1.38
			C46.66,25.92,46.16,26.27,45.66,26.63z"/>
		<path class="st0" d="M27.31,12.37l0.6,1.73c0.2,0.58,0.42,1.15,0.63,1.72c0.41,1.15,0.88,2.28,1.32,3.41
			c0.22,0.57,0.47,1.13,0.7,1.69l0.71,1.69l0.19,0.45l0.49,0.05c1.22,0.11,2.43,0.21,3.65,0.3c1.22,0.07,2.43,0.17,3.65,0.2
			c0.61,0.02,1.22,0.05,1.83,0.07l1.83,0.03c1.22,0,2.45,0.01,3.68-0.06c-1.2-0.3-2.4-0.52-3.61-0.74l-1.81-0.3
			c-0.6-0.1-1.21-0.18-1.81-0.27c-1.21-0.19-2.42-0.32-3.63-0.48c-1.05-0.12-2.1-0.23-3.16-0.33l-0.54-1.23
			c-0.25-0.56-0.49-1.12-0.75-1.67c-0.53-1.1-1.02-2.21-1.58-3.3c-0.28-0.55-0.54-1.1-0.82-1.64l-0.85-1.63
			c-0.29-0.54-0.58-1.08-0.89-1.61c-0.3-0.53-0.61-1.07-0.93-1.59c0.16,0.6,0.34,1.18,0.52,1.77
			C26.92,11.21,27.12,11.79,27.31,12.37z"/>
		<path class="st0" d="M7.67,23.72l1.83-0.04c0.61-0.01,1.22-0.05,1.83-0.07c1.22-0.04,2.44-0.14,3.65-0.21
			c0.61-0.04,1.22-0.1,1.82-0.15l1.82-0.15l0.48-0.04l0.19-0.45c0.48-1.12,0.95-2.24,1.41-3.38c0.44-1.14,0.91-2.26,1.32-3.41
			c0.21-0.57,0.43-1.14,0.63-1.72l0.6-1.73c0.38-1.17,0.76-2.33,1.08-3.52c-0.65,1.05-1.23,2.12-1.82,3.2l-0.85,1.63
			c-0.28,0.54-0.54,1.09-0.82,1.64c-0.55,1.09-1.05,2.2-1.58,3.31c-0.44,0.96-0.87,1.93-1.29,2.9l-1.34,0.14
			c-0.61,0.07-1.21,0.12-1.82,0.2c-1.21,0.16-2.42,0.29-3.63,0.48c-0.6,0.09-1.21,0.17-1.81,0.27l-1.81,0.31
			c-0.6,0.12-1.21,0.22-1.81,0.35c-0.6,0.12-1.2,0.25-1.8,0.4c0.62,0.03,1.23,0.05,1.84,0.06C6.44,23.73,7.06,23.72,7.67,23.72z"/>
		<path class="st0" d="M13.42,42.55c0.34-1.17,0.63-2.36,0.93-3.54c0.15-0.59,0.28-1.19,0.43-1.78l0.42-1.78l0.11-0.47l-0.37-0.33
			c-0.92-0.8-1.84-1.6-2.78-2.38c-0.95-0.77-1.87-1.56-2.84-2.31c-0.48-0.38-0.95-0.76-1.44-1.13l-1.46-1.11
			C5.43,27,4.45,26.27,3.41,25.61c0.8,0.94,1.64,1.83,2.48,2.72l1.29,1.31c0.43,0.44,0.87,0.86,1.3,1.28
			c0.87,0.86,1.77,1.68,2.66,2.52c0.78,0.72,1.57,1.42,2.36,2.12l-0.28,1.32c-0.12,0.6-0.26,1.19-0.37,1.79
			c-0.22,1.2-0.48,2.39-0.67,3.6c-0.1,0.6-0.21,1.2-0.3,1.81l-0.27,1.82c-0.08,0.61-0.16,1.21-0.23,1.82
			c-0.07,0.61-0.13,1.22-0.18,1.83c0.22-0.58,0.42-1.16,0.62-1.74c0.2-0.58,0.38-1.17,0.57-1.75l0.53-1.76
			C13.1,43.73,13.26,43.13,13.42,42.55z"/>
		<path class="st0" d="M34.95,48.43l-1.51-1.05c-0.5-0.35-1.02-0.68-1.52-1.02c-1.01-0.69-2.05-1.32-3.08-1.98
			c-0.52-0.33-1.04-0.64-1.56-0.96l-1.56-0.95l-0.42-0.25l-0.42,0.25c-1.05,0.62-2.09,1.26-3.12,1.9c-1.03,0.66-2.07,1.3-3.08,1.99
			c-0.51,0.34-1.02,0.67-1.52,1.02l-1.51,1.05c-0.99,0.72-1.98,1.44-2.94,2.22c1.14-0.47,2.25-0.99,3.35-1.52l1.64-0.82
			c0.55-0.27,1.08-0.56,1.62-0.84c1.09-0.56,2.14-1.17,3.22-1.75c0.92-0.52,1.83-1.05,2.75-1.59l1.16,0.67
			c0.53,0.3,1.05,0.62,1.59,0.91c1.07,0.58,2.13,1.19,3.22,1.75c0.54,0.28,1.08,0.57,1.63,0.84l1.64,0.82
			c0.55,0.26,1.1,0.53,1.66,0.78c0.56,0.25,1.12,0.5,1.69,0.74c-0.48-0.39-0.97-0.76-1.46-1.13C35.95,49.14,35.45,48.79,34.95,48.43
			z"/>
	</g>
	<g>
		<path class="st0" d="M61.52,26.01c-0.29,0.03-0.53,0.22-0.62,0.5c-0.09,0.28-0.01,0.58,0.21,0.77l7.82,6.87l-2.28,10.16
			c-0.06,0.28,0.05,0.58,0.29,0.75c0.23,0.17,0.55,0.19,0.8,0.04l8.95-5.31l8.96,5.31c0.25,0.15,0.56,0.13,0.8-0.04
			c0.23-0.17,0.35-0.46,0.28-0.75l-2.29-10.16l7.81-6.88c0.22-0.19,0.3-0.49,0.21-0.77c-0.09-0.28-0.33-0.47-0.62-0.5l-10.36-0.97
			l-4.13-9.56c-0.11-0.27-0.38-0.44-0.67-0.44s-0.55,0.17-0.67,0.44l-4.12,9.56L61.52,26.01z"/>
		<path class="st0" d="M97.04,26.63c-0.5,0.35-0.99,0.72-1.49,1.08l-1.46,1.11c-0.49,0.37-0.96,0.76-1.44,1.13
			c-0.97,0.75-1.89,1.54-2.84,2.31c-0.47,0.39-0.93,0.79-1.39,1.19l-1.39,1.19l-0.37,0.32l0.11,0.48c0.27,1.19,0.55,2.38,0.85,3.56
			c0.31,1.18,0.6,2.37,0.94,3.54c0.17,0.59,0.32,1.18,0.5,1.76l0.53,1.75c0.38,1.17,0.75,2.33,1.2,3.48
			c-0.09-1.23-0.25-2.44-0.41-3.66l-0.27-1.81c-0.09-0.6-0.2-1.2-0.3-1.81c-0.19-1.21-0.45-2.4-0.67-3.6
			c-0.21-1.04-0.43-2.07-0.66-3.11l1-0.9c0.45-0.41,0.91-0.81,1.36-1.23c0.89-0.84,1.79-1.66,2.66-2.52
			c0.43-0.43,0.88-0.85,1.31-1.29l1.28-1.31c0.42-0.45,0.84-0.89,1.26-1.34c0.41-0.45,0.82-0.91,1.22-1.38
			C98.05,25.92,97.55,26.27,97.04,26.63z"/>
		<path class="st0" d="M78.69,12.37l0.6,1.73c0.2,0.58,0.42,1.15,0.63,1.72c0.41,1.15,0.88,2.28,1.32,3.41
			c0.22,0.57,0.47,1.13,0.7,1.69l0.71,1.69l0.19,0.45l0.49,0.05c1.22,0.11,2.43,0.21,3.65,0.3c1.22,0.07,2.43,0.17,3.65,0.2
			c0.61,0.02,1.22,0.05,1.83,0.07l1.83,0.03c1.22,0,2.45,0.01,3.68-0.06c-1.2-0.3-2.4-0.52-3.61-0.74l-1.81-0.3
			c-0.6-0.1-1.21-0.18-1.81-0.27c-1.21-0.19-2.42-0.32-3.63-0.48c-1.05-0.12-2.1-0.23-3.16-0.33l-0.54-1.23
			c-0.25-0.56-0.49-1.12-0.75-1.67c-0.53-1.1-1.02-2.21-1.58-3.3c-0.28-0.55-0.54-1.1-0.82-1.64l-0.85-1.63
			c-0.3-0.54-0.58-1.08-0.89-1.61c-0.3-0.53-0.61-1.07-0.93-1.59c0.16,0.6,0.34,1.18,0.52,1.77C78.31,11.21,78.5,11.79,78.69,12.37z
			"/>
		<path class="st0" d="M59.05,23.72l1.83-0.04c0.61-0.01,1.22-0.05,1.83-0.07c1.22-0.04,2.44-0.14,3.65-0.21
			c0.61-0.04,1.22-0.1,1.82-0.15l1.82-0.15l0.48-0.04l0.19-0.45c0.48-1.12,0.95-2.24,1.41-3.38c0.44-1.14,0.91-2.26,1.32-3.41
			c0.21-0.57,0.43-1.14,0.63-1.72l0.6-1.73c0.38-1.17,0.76-2.33,1.08-3.52c-0.65,1.05-1.23,2.12-1.82,3.2l-0.85,1.63
			c-0.28,0.54-0.54,1.09-0.82,1.64c-0.55,1.09-1.05,2.2-1.58,3.31c-0.44,0.96-0.87,1.93-1.29,2.9l-1.34,0.14
			c-0.61,0.07-1.21,0.12-1.82,0.2c-1.21,0.16-2.42,0.29-3.63,0.48c-0.6,0.09-1.21,0.17-1.81,0.27l-1.81,0.31
			c-0.6,0.12-1.2,0.22-1.8,0.35c-0.6,0.12-1.2,0.25-1.8,0.4c0.61,0.03,1.23,0.05,1.84,0.06C57.83,23.73,58.44,23.72,59.05,23.72z"/>
		<path class="st0" d="M64.81,42.55c0.34-1.17,0.63-2.36,0.93-3.54c0.15-0.59,0.28-1.19,0.43-1.78l0.42-1.78l0.11-0.47l-0.37-0.33
			c-0.92-0.8-1.84-1.6-2.78-2.38c-0.95-0.77-1.87-1.56-2.84-2.31c-0.48-0.38-0.95-0.76-1.44-1.13l-1.46-1.11
			c-0.99-0.72-1.98-1.45-3.01-2.11c0.8,0.94,1.64,1.83,2.48,2.72l1.29,1.31c0.43,0.44,0.87,0.86,1.31,1.28
			c0.87,0.86,1.77,1.68,2.66,2.52c0.78,0.72,1.57,1.42,2.36,2.12l-0.28,1.32c-0.12,0.6-0.26,1.19-0.37,1.79
			c-0.22,1.2-0.48,2.39-0.67,3.6c-0.1,0.6-0.21,1.2-0.3,1.81l-0.27,1.82c-0.08,0.61-0.16,1.21-0.23,1.82
			c-0.07,0.61-0.13,1.22-0.18,1.83c0.22-0.58,0.42-1.16,0.62-1.74c0.2-0.58,0.38-1.17,0.57-1.75l0.53-1.76
			C64.49,43.73,64.64,43.13,64.81,42.55z"/>
		<path class="st0" d="M86.34,48.43l-1.51-1.05c-0.5-0.35-1.02-0.68-1.52-1.02c-1.01-0.69-2.05-1.32-3.08-1.98
			c-0.51-0.33-1.04-0.64-1.56-0.96l-1.56-0.95l-0.42-0.25l-0.42,0.25c-1.05,0.62-2.09,1.26-3.12,1.9c-1.03,0.66-2.07,1.3-3.08,1.99
			c-0.51,0.34-1.02,0.67-1.52,1.02l-1.5,1.05c-0.99,0.72-1.99,1.44-2.94,2.22c1.14-0.47,2.25-0.99,3.35-1.52l1.64-0.82
			c0.55-0.27,1.08-0.56,1.62-0.84c1.09-0.56,2.15-1.17,3.22-1.75c0.92-0.52,1.83-1.05,2.75-1.59l1.16,0.67
			c0.53,0.3,1.05,0.62,1.59,0.91c1.07,0.58,2.13,1.19,3.22,1.75c0.54,0.28,1.08,0.57,1.63,0.84l1.64,0.82
			c0.56,0.26,1.11,0.53,1.67,0.78c0.56,0.25,1.12,0.5,1.69,0.74c-0.48-0.39-0.97-0.76-1.46-1.13
			C87.33,49.14,86.83,48.79,86.34,48.43z"/>
	</g>
	<g>
		<path class="st0" d="M112.91,26.01c-0.29,0.03-0.53,0.22-0.62,0.5c-0.09,0.28-0.01,0.58,0.21,0.77l7.82,6.87l-2.28,10.16
			c-0.06,0.28,0.05,0.58,0.29,0.75c0.23,0.17,0.55,0.19,0.8,0.04l8.95-5.31l8.96,5.31c0.25,0.15,0.56,0.13,0.8-0.04
			c0.23-0.17,0.35-0.46,0.28-0.75l-2.29-10.16l7.81-6.88c0.22-0.19,0.3-0.49,0.21-0.77c-0.09-0.28-0.33-0.47-0.62-0.5l-10.36-0.97
			l-4.13-9.56c-0.11-0.27-0.38-0.44-0.67-0.44c-0.29,0-0.55,0.17-0.67,0.44l-4.12,9.56L112.91,26.01z"/>
		<path class="st0" d="M148.43,26.63c-0.5,0.35-0.99,0.72-1.49,1.08l-1.46,1.11c-0.49,0.37-0.96,0.76-1.44,1.13
			c-0.97,0.75-1.89,1.54-2.84,2.31c-0.47,0.39-0.93,0.79-1.39,1.19l-1.39,1.19l-0.37,0.32l0.11,0.48c0.27,1.19,0.55,2.38,0.85,3.56
			c0.31,1.18,0.6,2.37,0.94,3.54c0.17,0.59,0.32,1.18,0.5,1.76l0.53,1.75c0.38,1.17,0.75,2.33,1.2,3.48
			c-0.09-1.23-0.25-2.44-0.41-3.66l-0.27-1.81c-0.09-0.6-0.2-1.2-0.3-1.81c-0.19-1.21-0.45-2.4-0.67-3.6
			c-0.21-1.04-0.43-2.07-0.66-3.11l1-0.9c0.45-0.41,0.91-0.81,1.36-1.23c0.89-0.84,1.79-1.66,2.66-2.52
			c0.43-0.43,0.88-0.85,1.31-1.29l1.28-1.31c0.42-0.45,0.84-0.89,1.26-1.34c0.41-0.45,0.82-0.91,1.22-1.38
			C149.43,25.92,148.93,26.27,148.43,26.63z"/>
		<path class="st0" d="M130.08,12.37l0.6,1.73c0.2,0.58,0.42,1.15,0.63,1.72c0.41,1.15,0.88,2.28,1.32,3.41
			c0.22,0.57,0.47,1.13,0.7,1.69l0.71,1.69l0.19,0.45l0.49,0.05c1.22,0.11,2.43,0.21,3.65,0.3c1.22,0.07,2.43,0.17,3.65,0.2
			c0.61,0.02,1.22,0.05,1.83,0.07l1.83,0.03c1.22,0,2.45,0.01,3.68-0.06c-1.2-0.3-2.4-0.52-3.6-0.74l-1.81-0.3
			c-0.6-0.1-1.21-0.18-1.81-0.27c-1.21-0.19-2.42-0.32-3.63-0.48c-1.05-0.12-2.1-0.23-3.16-0.33l-0.54-1.23
			c-0.25-0.56-0.49-1.12-0.75-1.67c-0.53-1.1-1.02-2.21-1.58-3.3c-0.28-0.55-0.54-1.1-0.82-1.64l-0.85-1.63
			c-0.3-0.54-0.58-1.08-0.89-1.61c-0.3-0.53-0.61-1.07-0.93-1.59c0.16,0.6,0.34,1.18,0.52,1.77
			C129.69,11.21,129.89,11.79,130.08,12.37z"/>
		<path class="st0" d="M110.44,23.72l1.83-0.04c0.61-0.01,1.22-0.05,1.83-0.07c1.22-0.04,2.44-0.14,3.65-0.21
			c0.61-0.04,1.22-0.1,1.82-0.15l1.82-0.15l0.48-0.04l0.19-0.45c0.48-1.12,0.95-2.24,1.41-3.38c0.44-1.14,0.91-2.26,1.32-3.41
			c0.21-0.57,0.43-1.14,0.63-1.72l0.6-1.73c0.38-1.17,0.76-2.33,1.08-3.52c-0.65,1.05-1.23,2.12-1.82,3.2l-0.85,1.63
			c-0.28,0.54-0.54,1.09-0.82,1.64c-0.55,1.09-1.05,2.2-1.58,3.31c-0.44,0.96-0.87,1.93-1.29,2.9l-1.34,0.14
			c-0.61,0.07-1.21,0.12-1.82,0.2c-1.21,0.16-2.42,0.29-3.63,0.48c-0.6,0.09-1.21,0.17-1.81,0.27l-1.81,0.31
			c-0.6,0.12-1.2,0.22-1.8,0.35c-0.6,0.12-1.2,0.25-1.8,0.4c0.62,0.03,1.23,0.05,1.84,0.06C109.21,23.73,109.82,23.72,110.44,23.72z
			"/>
		<path class="st0" d="M116.19,42.55c0.34-1.17,0.63-2.36,0.93-3.54c0.15-0.59,0.28-1.19,0.43-1.78l0.42-1.78l0.11-0.47l-0.37-0.33
			c-0.92-0.8-1.84-1.6-2.78-2.38c-0.95-0.77-1.87-1.56-2.84-2.31c-0.48-0.38-0.95-0.76-1.44-1.13l-1.46-1.11
			c-0.99-0.72-1.98-1.45-3.01-2.11c0.79,0.94,1.64,1.83,2.48,2.72l1.28,1.31c0.43,0.44,0.87,0.86,1.31,1.28
			c0.87,0.86,1.77,1.68,2.66,2.52c0.78,0.72,1.57,1.42,2.36,2.12l-0.28,1.32c-0.12,0.6-0.26,1.19-0.37,1.79
			c-0.22,1.2-0.48,2.39-0.67,3.6c-0.1,0.6-0.21,1.2-0.3,1.81l-0.27,1.82c-0.08,0.61-0.16,1.21-0.23,1.82
			c-0.07,0.61-0.13,1.22-0.18,1.83c0.22-0.58,0.42-1.16,0.62-1.74c0.2-0.58,0.38-1.17,0.57-1.75l0.53-1.76
			C115.87,43.73,116.02,43.13,116.19,42.55z"/>
		<path class="st0" d="M137.72,48.43l-1.51-1.05c-0.5-0.35-1.02-0.68-1.52-1.02c-1.01-0.69-2.05-1.32-3.08-1.98
			c-0.52-0.33-1.04-0.64-1.56-0.96l-1.56-0.95l-0.42-0.25l-0.42,0.25c-1.05,0.62-2.09,1.26-3.12,1.9c-1.03,0.66-2.07,1.3-3.08,1.99
			c-0.51,0.34-1.02,0.67-1.52,1.02l-1.51,1.05c-0.99,0.72-1.98,1.44-2.94,2.22c1.14-0.47,2.25-0.99,3.35-1.52l1.64-0.82
			c0.55-0.27,1.08-0.56,1.63-0.84c1.09-0.56,2.14-1.17,3.22-1.75c0.92-0.52,1.83-1.05,2.75-1.59l1.16,0.67
			c0.53,0.3,1.05,0.62,1.59,0.91c1.07,0.58,2.13,1.19,3.22,1.75c0.54,0.28,1.08,0.57,1.63,0.84l1.64,0.82
			c0.55,0.26,1.1,0.53,1.66,0.78c0.56,0.25,1.12,0.5,1.69,0.74c-0.48-0.39-0.97-0.76-1.46-1.13
			C138.72,49.14,138.22,48.79,137.72,48.43z"/>
	</g>
	<g>
		<path class="st1" d="M164.29,26.01c-0.29,0.03-0.53,0.22-0.62,0.5c-0.09,0.28-0.01,0.58,0.21,0.77l7.82,6.87l-2.28,10.16
			c-0.06,0.28,0.05,0.58,0.29,0.75c0.23,0.17,0.55,0.19,0.8,0.04l8.95-5.31l8.96,5.31c0.25,0.15,0.56,0.13,0.8-0.04
			c0.23-0.17,0.35-0.46,0.28-0.75l-2.29-10.16l7.81-6.88c0.22-0.19,0.3-0.49,0.21-0.77c-0.09-0.28-0.33-0.47-0.62-0.5l-10.36-0.97
			l-4.13-9.56c-0.11-0.27-0.38-0.44-0.67-0.44s-0.55,0.17-0.67,0.44l-4.12,9.56L164.29,26.01z"/>
		<path class="st1" d="M199.81,26.63c-0.5,0.35-0.99,0.72-1.49,1.08l-1.46,1.11c-0.49,0.37-0.96,0.76-1.44,1.13
			c-0.97,0.75-1.89,1.54-2.84,2.31c-0.47,0.39-0.93,0.79-1.39,1.19l-1.39,1.19l-0.37,0.32l0.11,0.48c0.27,1.19,0.55,2.38,0.85,3.56
			c0.31,1.18,0.6,2.37,0.94,3.54c0.17,0.59,0.32,1.18,0.5,1.76l0.53,1.75c0.38,1.17,0.75,2.33,1.2,3.48
			c-0.09-1.23-0.25-2.44-0.41-3.66l-0.27-1.81c-0.09-0.6-0.2-1.2-0.3-1.81c-0.19-1.21-0.45-2.4-0.67-3.6
			c-0.21-1.04-0.43-2.07-0.66-3.11l1-0.9c0.45-0.41,0.91-0.81,1.36-1.23c0.89-0.84,1.79-1.66,2.66-2.52
			c0.43-0.43,0.88-0.85,1.31-1.29l1.28-1.31c0.42-0.45,0.84-0.89,1.26-1.34c0.41-0.45,0.83-0.91,1.22-1.38
			C200.82,25.92,200.31,26.27,199.81,26.63z"/>
		<path class="st1" d="M181.46,12.37l0.6,1.73c0.2,0.58,0.42,1.15,0.63,1.72c0.41,1.15,0.88,2.28,1.32,3.41
			c0.22,0.57,0.47,1.13,0.7,1.69l0.71,1.69l0.19,0.45l0.49,0.05c1.22,0.11,2.43,0.21,3.65,0.3c1.22,0.07,2.43,0.17,3.65,0.2
			c0.61,0.02,1.22,0.05,1.83,0.07l1.83,0.03c1.22,0,2.45,0.01,3.68-0.06c-1.2-0.3-2.4-0.52-3.61-0.74l-1.81-0.3
			c-0.6-0.1-1.21-0.18-1.81-0.27c-1.21-0.19-2.42-0.32-3.63-0.48c-1.05-0.12-2.1-0.23-3.16-0.33l-0.54-1.23
			c-0.25-0.56-0.49-1.12-0.75-1.67c-0.53-1.1-1.02-2.21-1.58-3.3c-0.28-0.55-0.54-1.1-0.82-1.64l-0.85-1.63
			c-0.29-0.54-0.58-1.08-0.89-1.61c-0.3-0.53-0.61-1.07-0.93-1.59c0.16,0.6,0.34,1.18,0.52,1.77
			C181.07,11.21,181.27,11.79,181.46,12.37z"/>
		<path class="st1" d="M161.82,23.72l1.84-0.04c0.61-0.01,1.22-0.05,1.83-0.07c1.22-0.04,2.44-0.14,3.65-0.21
			c0.61-0.04,1.22-0.1,1.82-0.15l1.82-0.15l0.48-0.04l0.19-0.45c0.48-1.12,0.95-2.24,1.41-3.38c0.44-1.14,0.91-2.26,1.32-3.41
			c0.21-0.57,0.43-1.14,0.63-1.72l0.6-1.73c0.38-1.17,0.76-2.33,1.08-3.52c-0.65,1.05-1.23,2.12-1.82,3.2l-0.85,1.63
			c-0.28,0.54-0.54,1.09-0.82,1.64c-0.55,1.09-1.05,2.2-1.58,3.31c-0.44,0.96-0.87,1.93-1.29,2.9l-1.34,0.14
			c-0.61,0.07-1.21,0.12-1.82,0.2c-1.21,0.16-2.42,0.29-3.63,0.48c-0.6,0.09-1.21,0.17-1.81,0.27l-1.81,0.31
			c-0.6,0.12-1.2,0.22-1.8,0.35c-0.6,0.12-1.2,0.25-1.8,0.4c0.61,0.03,1.23,0.05,1.84,0.06C160.6,23.73,161.21,23.72,161.82,23.72z"
			/>
		<path class="st1" d="M167.57,42.55c0.34-1.17,0.63-2.36,0.93-3.54c0.15-0.59,0.28-1.19,0.43-1.78l0.42-1.78l0.11-0.47l-0.37-0.33
			c-0.92-0.8-1.84-1.6-2.78-2.38c-0.95-0.77-1.87-1.56-2.84-2.31c-0.48-0.38-0.95-0.76-1.44-1.13l-1.46-1.11
			c-0.99-0.72-1.98-1.45-3.01-2.11c0.8,0.94,1.64,1.83,2.48,2.72l1.28,1.31c0.43,0.44,0.87,0.86,1.31,1.28
			c0.87,0.86,1.77,1.68,2.66,2.52c0.78,0.72,1.57,1.42,2.36,2.12l-0.28,1.32c-0.12,0.6-0.26,1.19-0.37,1.79
			c-0.22,1.2-0.48,2.39-0.67,3.6c-0.1,0.6-0.21,1.2-0.3,1.81l-0.27,1.82c-0.08,0.61-0.16,1.21-0.23,1.82
			c-0.07,0.61-0.13,1.22-0.18,1.83c0.22-0.58,0.42-1.16,0.62-1.74c0.2-0.58,0.38-1.17,0.57-1.75l0.53-1.76
			C167.25,43.73,167.41,43.13,167.57,42.55z"/>
		<path class="st1" d="M189.1,48.43l-1.5-1.05c-0.5-0.35-1.02-0.68-1.52-1.02c-1.01-0.69-2.05-1.32-3.08-1.98
			c-0.52-0.33-1.04-0.64-1.56-0.96l-1.56-0.95l-0.42-0.25l-0.42,0.25c-1.05,0.62-2.09,1.26-3.12,1.9c-1.03,0.66-2.07,1.3-3.08,1.99
			c-0.51,0.34-1.02,0.67-1.52,1.02l-1.51,1.05c-0.99,0.72-1.98,1.44-2.94,2.22c1.14-0.47,2.25-0.99,3.35-1.52l1.64-0.82
			c0.55-0.27,1.08-0.56,1.62-0.84c1.09-0.56,2.15-1.17,3.22-1.75c0.92-0.52,1.83-1.05,2.75-1.59l1.16,0.67
			c0.53,0.3,1.05,0.62,1.59,0.91c1.07,0.58,2.13,1.19,3.22,1.75c0.54,0.28,1.08,0.57,1.63,0.84l1.64,0.82
			c0.56,0.26,1.1,0.53,1.67,0.78c0.56,0.25,1.12,0.5,1.69,0.74c-0.48-0.39-0.97-0.76-1.46-1.13C190.1,49.14,189.6,48.79,189.1,48.43
			z"/>
	</g>
	<g>
		<path class="st1" d="M215.67,26.01c-0.29,0.03-0.53,0.22-0.62,0.5c-0.09,0.28-0.01,0.58,0.21,0.77l7.82,6.87l-2.28,10.16
			c-0.06,0.28,0.05,0.58,0.29,0.75c0.23,0.17,0.55,0.19,0.8,0.04l8.95-5.31l8.96,5.31c0.25,0.15,0.56,0.13,0.8-0.04
			c0.23-0.17,0.35-0.46,0.28-0.75l-2.29-10.16l7.82-6.88c0.22-0.19,0.3-0.49,0.21-0.77c-0.09-0.28-0.34-0.47-0.62-0.5l-10.36-0.97
			l-4.13-9.56c-0.11-0.27-0.38-0.44-0.67-0.44c-0.29,0-0.55,0.17-0.67,0.44l-4.12,9.56L215.67,26.01z"/>
		<path class="st1" d="M251.19,26.63c-0.5,0.35-0.99,0.72-1.49,1.08l-1.46,1.11c-0.49,0.37-0.96,0.76-1.44,1.13
			c-0.97,0.75-1.89,1.54-2.84,2.31c-0.47,0.39-0.93,0.79-1.39,1.19l-1.39,1.19l-0.37,0.32l0.11,0.48c0.27,1.19,0.55,2.38,0.85,3.56
			c0.31,1.18,0.6,2.37,0.94,3.54c0.17,0.59,0.32,1.18,0.5,1.76l0.53,1.75c0.38,1.17,0.75,2.33,1.2,3.48
			c-0.09-1.23-0.25-2.44-0.41-3.66l-0.27-1.81c-0.09-0.6-0.2-1.2-0.3-1.81c-0.2-1.21-0.45-2.4-0.67-3.6
			c-0.21-1.04-0.43-2.07-0.66-3.11l1-0.9c0.45-0.41,0.91-0.81,1.36-1.23c0.89-0.84,1.79-1.66,2.66-2.52
			c0.43-0.43,0.88-0.85,1.3-1.29l1.28-1.31c0.42-0.45,0.84-0.89,1.26-1.34c0.41-0.45,0.82-0.91,1.22-1.38
			C252.2,25.92,251.7,26.27,251.19,26.63z"/>
		<path class="st1" d="M232.84,12.37l0.6,1.73c0.2,0.58,0.42,1.15,0.63,1.72c0.41,1.15,0.88,2.28,1.32,3.41
			c0.22,0.57,0.47,1.13,0.7,1.69l0.71,1.69l0.19,0.45l0.49,0.05c1.22,0.11,2.43,0.21,3.65,0.3c1.22,0.07,2.43,0.17,3.65,0.2
			c0.61,0.02,1.22,0.05,1.83,0.07l1.83,0.03c1.22,0,2.45,0.01,3.68-0.06c-1.2-0.3-2.4-0.52-3.6-0.74l-1.81-0.3
			c-0.6-0.1-1.21-0.18-1.81-0.27c-1.21-0.19-2.42-0.32-3.63-0.48c-1.05-0.12-2.1-0.23-3.16-0.33l-0.54-1.23
			c-0.25-0.56-0.49-1.12-0.75-1.67c-0.53-1.1-1.02-2.21-1.58-3.3c-0.28-0.55-0.54-1.1-0.82-1.64l-0.85-1.63
			c-0.29-0.54-0.58-1.08-0.89-1.61c-0.3-0.53-0.61-1.07-0.93-1.59c0.16,0.6,0.34,1.18,0.52,1.77
			C232.46,11.21,232.66,11.79,232.84,12.37z"/>
		<path class="st1" d="M213.2,23.72l1.83-0.04c0.61-0.01,1.22-0.05,1.83-0.07c1.22-0.04,2.44-0.14,3.65-0.21
			c0.61-0.04,1.22-0.1,1.82-0.15l1.82-0.15l0.48-0.04l0.2-0.45c0.48-1.12,0.95-2.24,1.41-3.38c0.44-1.14,0.91-2.26,1.32-3.41
			c0.21-0.57,0.43-1.14,0.63-1.72l0.6-1.73c0.38-1.17,0.76-2.33,1.08-3.52c-0.65,1.05-1.23,2.12-1.82,3.2l-0.85,1.63
			c-0.28,0.54-0.54,1.09-0.82,1.64c-0.55,1.09-1.05,2.2-1.58,3.31c-0.44,0.96-0.87,1.93-1.29,2.9l-1.34,0.14
			c-0.61,0.07-1.21,0.12-1.82,0.2c-1.21,0.16-2.42,0.29-3.63,0.48c-0.6,0.09-1.21,0.17-1.81,0.27l-1.81,0.31
			c-0.6,0.12-1.2,0.22-1.8,0.35c-0.6,0.12-1.2,0.25-1.8,0.4c0.61,0.03,1.23,0.05,1.84,0.06C211.98,23.73,212.59,23.72,213.2,23.72z"
			/>
		<path class="st1" d="M218.96,42.55c0.34-1.17,0.63-2.36,0.93-3.54c0.15-0.59,0.28-1.19,0.43-1.78l0.42-1.78l0.11-0.47l-0.37-0.33
			c-0.92-0.8-1.84-1.6-2.77-2.38c-0.95-0.77-1.87-1.56-2.84-2.31c-0.48-0.38-0.95-0.76-1.44-1.13l-1.46-1.11
			c-0.99-0.72-1.98-1.45-3.01-2.11c0.79,0.94,1.64,1.83,2.48,2.72l1.28,1.31c0.43,0.44,0.87,0.86,1.31,1.28
			c0.87,0.86,1.77,1.68,2.66,2.52c0.78,0.72,1.57,1.42,2.36,2.12l-0.28,1.32c-0.12,0.6-0.26,1.19-0.37,1.79
			c-0.22,1.2-0.48,2.39-0.67,3.6c-0.1,0.6-0.21,1.2-0.3,1.81l-0.27,1.82c-0.08,0.61-0.16,1.21-0.23,1.82
			c-0.07,0.61-0.13,1.22-0.18,1.83c0.22-0.58,0.43-1.16,0.62-1.74c0.2-0.58,0.38-1.17,0.57-1.75l0.53-1.76
			C218.64,43.73,218.79,43.13,218.96,42.55z"/>
		<path class="st1" d="M240.49,48.43l-1.51-1.05c-0.5-0.35-1.02-0.68-1.52-1.02c-1.01-0.69-2.05-1.32-3.08-1.98
			c-0.52-0.33-1.04-0.64-1.56-0.96l-1.56-0.95l-0.42-0.25l-0.42,0.25c-1.05,0.62-2.09,1.26-3.12,1.9c-1.03,0.66-2.07,1.3-3.08,1.99
			c-0.51,0.34-1.02,0.67-1.52,1.02l-1.51,1.05c-0.99,0.72-1.98,1.44-2.94,2.22c1.14-0.47,2.25-0.99,3.35-1.52l1.64-0.82
			c0.55-0.27,1.08-0.56,1.63-0.84c1.09-0.56,2.14-1.17,3.22-1.75c0.92-0.52,1.83-1.05,2.75-1.59l1.16,0.67
			c0.53,0.3,1.05,0.62,1.59,0.91c1.07,0.58,2.13,1.19,3.22,1.75c0.54,0.28,1.08,0.57,1.63,0.84l1.64,0.82
			c0.56,0.26,1.1,0.53,1.67,0.78c0.56,0.25,1.12,0.5,1.69,0.74c-0.48-0.39-0.97-0.76-1.46-1.13
			C241.48,49.14,240.98,48.79,240.49,48.43z"/>
	</g>
</g>
</svg>
