<?xml version="1.0" encoding="utf-8"?>
<!-- Generator: Adobe Illustrator 23.0.5, SVG Export Plug-In . SVG Version: 6.00 Build 0)  -->
<svg version="1.1" id="Layer_1" xmlns="http://www.w3.org/2000/svg" xmlns:xlink="http://www.w3.org/1999/xlink" x="0px" y="0px"
	 viewBox="0 0 309.8 76.95" style="enable-background:new 0 0 309.8 76.95;" xml:space="preserve">
<style type="text/css">
	.st0{fill:#FEBB12;}
</style>
<g>
	<path class="st0" d="M8.36,32.49C8,32.52,7.7,32.76,7.59,33.11c-0.11,0.34-0.01,0.72,0.26,0.96l9.71,8.54l-2.83,12.62
		c-0.08,0.35,0.06,0.72,0.35,0.93c0.29,0.21,0.68,0.23,0.99,0.05l11.13-6.6l11.13,6.59c0.31,0.18,0.7,0.16,0.99-0.05
		c0.29-0.21,0.43-0.58,0.35-0.93L36.83,42.6l9.71-8.55c0.27-0.24,0.37-0.61,0.26-0.96c-0.11-0.34-0.42-0.59-0.77-0.62l-12.88-1.2
		l-5.13-11.88c-0.14-0.33-0.47-0.54-0.83-0.54c-0.36,0-0.69,0.21-0.83,0.55l-5.12,11.88L8.36,32.49z"/>
	<path class="st0" d="M52.5,33.25c-0.63,0.44-1.23,0.89-1.85,1.34l-1.82,1.38c-0.6,0.46-1.19,0.94-1.79,1.41
		c-1.2,0.93-2.35,1.92-3.53,2.88c-0.58,0.48-1.15,0.99-1.73,1.48l-1.72,1.48l-0.46,0.39l0.14,0.6c0.34,1.48,0.68,2.95,1.05,4.42
		c0.39,1.47,0.74,2.94,1.17,4.4c0.21,0.73,0.4,1.46,0.63,2.19l0.66,2.18c0.47,1.45,0.93,2.9,1.49,4.32
		c-0.11-1.53-0.31-3.04-0.51-4.55l-0.33-2.25c-0.11-0.75-0.25-1.5-0.37-2.25c-0.24-1.5-0.56-2.98-0.84-4.47
		c-0.26-1.29-0.53-2.57-0.82-3.86l1.24-1.12c0.56-0.51,1.13-1.01,1.68-1.53c1.1-1.04,2.22-2.06,3.3-3.13
		c0.54-0.53,1.09-1.05,1.62-1.6l1.59-1.63c0.52-0.56,1.05-1.1,1.56-1.67c0.51-0.56,1.02-1.13,1.52-1.71
		C53.75,32.38,53.12,32.81,52.5,33.25z"/>
	<path class="st0" d="M29.7,15.54l0.75,2.15c0.25,0.72,0.52,1.42,0.78,2.14c0.51,1.43,1.1,2.83,1.65,4.24
		c0.28,0.71,0.58,1.4,0.88,2.1l0.88,2.1l0.23,0.56l0.61,0.06c1.51,0.14,3.02,0.27,4.53,0.37c1.51,0.08,3.02,0.21,4.54,0.25
		c0.76,0.03,1.52,0.07,2.28,0.08l2.28,0.04c1.52,0,3.04,0.01,4.57-0.08c-1.49-0.37-2.99-0.64-4.48-0.92l-2.25-0.38
		c-0.75-0.13-1.5-0.23-2.25-0.34c-1.5-0.24-3.01-0.39-4.51-0.59c-1.31-0.16-2.61-0.29-3.92-0.42l-0.68-1.52
		c-0.31-0.69-0.61-1.39-0.93-2.07c-0.65-1.37-1.27-2.75-1.96-4.1c-0.34-0.68-0.67-1.36-1.02-2.04l-1.06-2.02
		c-0.36-0.67-0.72-1.34-1.1-2c-0.38-0.66-0.76-1.32-1.16-1.97c0.2,0.74,0.42,1.47,0.64,2.2C29.22,14.1,29.46,14.81,29.7,15.54z"/>
	<path class="st0" d="M5.29,29.64l2.28-0.04c0.76-0.01,1.51-0.06,2.27-0.09c1.52-0.05,3.03-0.17,4.54-0.26
		c0.76-0.04,1.51-0.12,2.26-0.18l2.27-0.19l0.6-0.05l0.24-0.56c0.6-1.39,1.19-2.79,1.75-4.2c0.55-1.41,1.13-2.81,1.64-4.24
		c0.26-0.71,0.53-1.42,0.78-2.14l0.75-2.15c0.47-1.45,0.95-2.89,1.34-4.38c-0.81,1.3-1.53,2.64-2.26,3.98l-1.05,2.02
		c-0.35,0.67-0.68,1.36-1.02,2.04c-0.69,1.35-1.3,2.74-1.96,4.11c-0.55,1.19-1.08,2.4-1.6,3.6l-1.66,0.17
		c-0.75,0.08-1.51,0.15-2.26,0.25c-1.5,0.2-3.01,0.36-4.51,0.6c-0.75,0.11-1.5,0.21-2.25,0.34L5.2,28.65
		c-0.75,0.14-1.5,0.27-2.24,0.43c-0.75,0.15-1.49,0.31-2.24,0.49c0.76,0.04,1.53,0.06,2.29,0.07C3.77,29.65,4.53,29.64,5.29,29.64z"
		/>
	<path class="st0" d="M12.44,53.04c0.42-1.46,0.78-2.93,1.16-4.4c0.19-0.73,0.35-1.47,0.53-2.21l0.52-2.21l0.14-0.59l-0.46-0.4
		c-1.14-1-2.29-1.99-3.45-2.96c-1.18-0.96-2.33-1.94-3.53-2.87c-0.6-0.47-1.18-0.95-1.79-1.4l-1.82-1.37
		c-1.23-0.9-2.46-1.8-3.74-2.62c0.99,1.17,2.04,2.27,3.08,3.38l1.6,1.63c0.53,0.54,1.08,1.06,1.62,1.6c1.08,1.07,2.2,2.09,3.3,3.13
		c0.96,0.89,1.95,1.77,2.93,2.64l-0.35,1.63c-0.15,0.74-0.32,1.48-0.46,2.23c-0.28,1.49-0.59,2.98-0.83,4.47
		c-0.12,0.75-0.26,1.49-0.37,2.25l-0.33,2.26c-0.1,0.76-0.2,1.51-0.29,2.27c-0.08,0.76-0.17,1.52-0.22,2.28
		c0.28-0.72,0.53-1.44,0.77-2.16c0.25-0.72,0.47-1.45,0.71-2.17l0.66-2.18C12.04,54.5,12.23,53.77,12.44,53.04z"/>
	<path class="st0" d="M39.2,60.35l-1.87-1.3c-0.62-0.44-1.26-0.84-1.89-1.27c-1.25-0.85-2.55-1.64-3.82-2.46
		c-0.64-0.41-1.29-0.79-1.94-1.19l-1.94-1.18l-0.52-0.31l-0.53,0.32c-1.3,0.78-2.6,1.56-3.88,2.37c-1.28,0.82-2.57,1.61-3.82,2.47
		c-0.63,0.42-1.27,0.84-1.89,1.27l-1.87,1.3c-1.23,0.89-2.47,1.78-3.65,2.75c1.42-0.58,2.79-1.24,4.17-1.89l2.04-1.02
		c0.68-0.34,1.34-0.7,2.02-1.05c1.35-0.69,2.66-1.45,4-2.17c1.15-0.64,2.28-1.31,3.41-1.97l1.45,0.84c0.66,0.38,1.31,0.77,1.97,1.13
		c1.33,0.72,2.65,1.48,4,2.17c0.67,0.35,1.34,0.71,2.02,1.05l2.04,1.01c0.69,0.32,1.37,0.66,2.07,0.97c0.69,0.31,1.39,0.63,2.1,0.91
		c-0.59-0.48-1.2-0.94-1.81-1.4C40.43,61.23,39.81,60.8,39.2,60.35z"/>
</g>
<g>
	<path class="st0" d="M72.21,32.49c-0.36,0.03-0.66,0.28-0.77,0.62c-0.11,0.34-0.01,0.72,0.26,0.96l9.71,8.54l-2.83,12.62
		c-0.08,0.35,0.06,0.72,0.35,0.93c0.29,0.21,0.68,0.23,0.99,0.05l11.13-6.6l11.13,6.59c0.31,0.18,0.7,0.16,0.99-0.05
		c0.29-0.21,0.43-0.58,0.35-0.93l-2.84-12.62l9.71-8.55c0.27-0.24,0.37-0.61,0.26-0.96c-0.11-0.34-0.42-0.59-0.78-0.62L97,31.27
		l-5.13-11.88c-0.14-0.33-0.47-0.54-0.83-0.54c-0.36,0-0.69,0.21-0.83,0.55l-5.12,11.88L72.21,32.49z"/>
	<path class="st0" d="M116.35,33.25c-0.62,0.44-1.23,0.89-1.85,1.34l-1.82,1.38c-0.61,0.46-1.19,0.94-1.79,1.41
		c-1.2,0.93-2.35,1.92-3.52,2.88c-0.59,0.48-1.15,0.99-1.73,1.48l-1.72,1.48l-0.46,0.39l0.14,0.6c0.34,1.48,0.68,2.95,1.05,4.42
		c0.39,1.47,0.74,2.94,1.17,4.4c0.21,0.73,0.4,1.46,0.62,2.19l0.66,2.18c0.47,1.45,0.93,2.9,1.49,4.32
		c-0.11-1.53-0.31-3.04-0.51-4.55l-0.33-2.25c-0.11-0.75-0.25-1.5-0.38-2.25c-0.24-1.5-0.56-2.98-0.84-4.47
		c-0.26-1.29-0.53-2.57-0.82-3.86l1.24-1.12c0.56-0.51,1.13-1.01,1.69-1.53c1.1-1.04,2.22-2.06,3.3-3.13
		c0.54-0.53,1.09-1.05,1.62-1.6l1.59-1.63c0.52-0.56,1.05-1.1,1.56-1.67c0.51-0.56,1.02-1.13,1.52-1.71
		C117.6,32.38,116.98,32.81,116.35,33.25z"/>
	<path class="st0" d="M93.55,15.54l0.75,2.15c0.25,0.72,0.53,1.42,0.79,2.14c0.51,1.43,1.1,2.83,1.65,4.24
		c0.28,0.71,0.58,1.4,0.88,2.1l0.88,2.1l0.23,0.56l0.61,0.06c1.51,0.14,3.02,0.27,4.53,0.37c1.51,0.08,3.02,0.21,4.54,0.25
		c0.76,0.03,1.52,0.07,2.28,0.08l2.28,0.04c1.52,0,3.04,0.01,4.57-0.08c-1.49-0.37-2.99-0.64-4.48-0.92l-2.25-0.38
		c-0.75-0.13-1.5-0.23-2.25-0.34c-1.5-0.24-3-0.39-4.51-0.59c-1.31-0.16-2.61-0.29-3.92-0.42l-0.68-1.52
		c-0.31-0.69-0.61-1.39-0.93-2.07c-0.65-1.37-1.27-2.75-1.96-4.1c-0.34-0.68-0.67-1.36-1.02-2.04l-1.06-2.02
		c-0.37-0.67-0.72-1.34-1.1-2c-0.38-0.66-0.76-1.32-1.16-1.97c0.2,0.74,0.42,1.47,0.64,2.2C93.07,14.1,93.31,14.81,93.55,15.54z"/>
	<path class="st0" d="M69.14,29.64l2.28-0.04c0.76-0.01,1.51-0.06,2.27-0.09c1.52-0.05,3.03-0.17,4.54-0.26
		c0.76-0.04,1.51-0.12,2.26-0.18l2.27-0.19l0.6-0.05l0.24-0.56c0.6-1.39,1.19-2.79,1.75-4.2c0.55-1.41,1.13-2.81,1.64-4.24
		c0.26-0.71,0.53-1.42,0.78-2.14l0.75-2.15c0.47-1.45,0.95-2.89,1.34-4.38c-0.81,1.3-1.53,2.64-2.26,3.98l-1.05,2.02
		c-0.35,0.67-0.68,1.36-1.02,2.04c-0.69,1.35-1.3,2.74-1.96,4.11c-0.55,1.19-1.08,2.4-1.6,3.6l-1.66,0.17
		c-0.75,0.08-1.51,0.15-2.26,0.25c-1.5,0.2-3.01,0.36-4.51,0.6c-0.75,0.11-1.5,0.21-2.25,0.34l-2.25,0.38
		c-0.75,0.14-1.5,0.27-2.24,0.43c-0.75,0.15-1.49,0.31-2.24,0.49c0.76,0.04,1.53,0.06,2.29,0.07
		C67.62,29.65,68.38,29.64,69.14,29.64z"/>
	<path class="st0" d="M76.29,53.04c0.42-1.46,0.78-2.93,1.16-4.4c0.19-0.73,0.35-1.47,0.53-2.21l0.52-2.21l0.14-0.59l-0.46-0.4
		c-1.14-1-2.29-1.99-3.45-2.96c-1.18-0.96-2.33-1.94-3.53-2.87c-0.6-0.47-1.19-0.95-1.79-1.4l-1.82-1.37
		c-1.23-0.9-2.46-1.8-3.74-2.62c0.99,1.17,2.04,2.27,3.08,3.38l1.6,1.63c0.53,0.54,1.08,1.06,1.62,1.6c1.08,1.07,2.2,2.09,3.3,3.13
		c0.96,0.89,1.95,1.77,2.93,2.64l-0.35,1.63c-0.15,0.74-0.32,1.48-0.46,2.23c-0.28,1.49-0.59,2.98-0.83,4.47
		c-0.12,0.75-0.26,1.49-0.37,2.25l-0.33,2.26c-0.1,0.76-0.2,1.51-0.29,2.27c-0.08,0.76-0.17,1.52-0.22,2.28
		c0.28-0.72,0.53-1.44,0.77-2.16c0.25-0.72,0.47-1.45,0.71-2.17l0.66-2.18C75.9,54.5,76.09,53.77,76.29,53.04z"/>
	<path class="st0" d="M103.05,60.35l-1.87-1.3c-0.62-0.44-1.26-0.84-1.89-1.27c-1.25-0.85-2.55-1.64-3.82-2.46
		c-0.64-0.41-1.29-0.79-1.94-1.19l-1.94-1.18l-0.52-0.31l-0.53,0.32c-1.3,0.78-2.6,1.56-3.88,2.37c-1.28,0.82-2.57,1.61-3.82,2.47
		c-0.63,0.42-1.27,0.84-1.89,1.27l-1.87,1.3c-1.23,0.89-2.47,1.78-3.66,2.75c1.42-0.58,2.79-1.24,4.17-1.89l2.04-1.02
		c0.68-0.34,1.35-0.7,2.02-1.05c1.35-0.69,2.67-1.45,4-2.17c1.15-0.64,2.28-1.31,3.41-1.97l1.45,0.84c0.66,0.38,1.31,0.77,1.97,1.13
		c1.33,0.72,2.65,1.48,4,2.17c0.67,0.35,1.34,0.71,2.02,1.05l2.04,1.01c0.69,0.32,1.37,0.66,2.07,0.97c0.69,0.31,1.39,0.63,2.1,0.91
		c-0.6-0.48-1.2-0.94-1.81-1.4C104.29,61.23,103.66,60.8,103.05,60.35z"/>
</g>
<g>
	<path class="st0" d="M136.06,32.49c-0.36,0.03-0.66,0.28-0.77,0.62c-0.11,0.34-0.01,0.72,0.26,0.96l9.71,8.54l-2.83,12.62
		c-0.08,0.35,0.06,0.72,0.35,0.93c0.29,0.21,0.68,0.23,0.99,0.05l11.13-6.6l11.13,6.59c0.31,0.18,0.7,0.16,0.99-0.05
		c0.29-0.21,0.43-0.58,0.35-0.93l-2.84-12.62l9.71-8.55c0.27-0.24,0.37-0.61,0.26-0.96c-0.11-0.34-0.42-0.59-0.78-0.62l-12.88-1.2
		l-5.13-11.88c-0.14-0.33-0.47-0.54-0.83-0.54c-0.36,0-0.69,0.21-0.83,0.55l-5.12,11.88L136.06,32.49z"/>
	<path class="st0" d="M180.2,33.25c-0.62,0.44-1.23,0.89-1.85,1.34l-1.82,1.38c-0.61,0.46-1.19,0.94-1.79,1.41
		c-1.2,0.93-2.35,1.92-3.53,2.88c-0.59,0.48-1.15,0.99-1.73,1.48l-1.72,1.48l-0.46,0.39l0.13,0.6c0.34,1.48,0.68,2.95,1.05,4.42
		c0.39,1.47,0.74,2.94,1.17,4.4c0.21,0.73,0.4,1.46,0.63,2.19l0.66,2.18c0.47,1.45,0.93,2.9,1.49,4.32
		c-0.11-1.53-0.31-3.04-0.51-4.55l-0.33-2.25c-0.11-0.75-0.25-1.5-0.37-2.25c-0.24-1.5-0.56-2.98-0.84-4.47
		c-0.26-1.29-0.53-2.57-0.82-3.86l1.24-1.12c0.56-0.51,1.13-1.01,1.68-1.53c1.1-1.04,2.22-2.06,3.3-3.13
		c0.54-0.53,1.09-1.05,1.62-1.6l1.59-1.63c0.52-0.56,1.05-1.1,1.56-1.67c0.51-0.56,1.02-1.13,1.52-1.71
		C181.45,32.38,180.83,32.81,180.2,33.25z"/>
	<path class="st0" d="M157.4,15.54l0.75,2.15c0.25,0.72,0.52,1.42,0.78,2.14c0.51,1.43,1.1,2.83,1.65,4.24
		c0.28,0.71,0.58,1.4,0.88,2.1l0.88,2.1l0.23,0.56l0.61,0.06c1.51,0.14,3.02,0.27,4.53,0.37c1.51,0.08,3.02,0.21,4.54,0.25
		c0.76,0.03,1.52,0.07,2.28,0.08l2.28,0.04c1.52,0,3.04,0.01,4.57-0.08c-1.49-0.37-2.98-0.64-4.48-0.92l-2.25-0.38
		c-0.75-0.13-1.5-0.23-2.25-0.34c-1.5-0.24-3-0.39-4.51-0.59c-1.31-0.16-2.61-0.29-3.92-0.42l-0.68-1.52
		c-0.31-0.69-0.61-1.39-0.93-2.07c-0.65-1.37-1.27-2.75-1.96-4.1c-0.34-0.68-0.67-1.36-1.02-2.04l-1.06-2.02
		c-0.37-0.67-0.72-1.34-1.1-2c-0.38-0.66-0.76-1.32-1.16-1.97c0.2,0.74,0.42,1.47,0.64,2.2C156.92,14.1,157.17,14.81,157.4,15.54z"
		/>
	<path class="st0" d="M133,29.64l2.28-0.04c0.76-0.01,1.51-0.06,2.27-0.09c1.52-0.05,3.03-0.17,4.54-0.26
		c0.76-0.04,1.51-0.12,2.27-0.18l2.27-0.19l0.6-0.05l0.24-0.56c0.6-1.39,1.19-2.79,1.75-4.2c0.55-1.41,1.13-2.81,1.64-4.24
		c0.26-0.71,0.53-1.42,0.78-2.14l0.75-2.15c0.47-1.45,0.95-2.89,1.34-4.38c-0.81,1.3-1.53,2.64-2.26,3.98l-1.05,2.02
		c-0.35,0.67-0.68,1.36-1.02,2.04c-0.69,1.35-1.3,2.74-1.96,4.11c-0.55,1.19-1.08,2.4-1.6,3.6l-1.66,0.17
		c-0.75,0.08-1.51,0.15-2.26,0.25c-1.5,0.2-3.01,0.36-4.51,0.6c-0.75,0.11-1.5,0.21-2.25,0.34l-2.25,0.38
		c-0.75,0.14-1.5,0.27-2.24,0.43c-0.75,0.15-1.49,0.31-2.24,0.49c0.76,0.04,1.53,0.06,2.29,0.07
		C131.48,29.65,132.23,29.64,133,29.64z"/>
	<path class="st0" d="M140.15,53.04c0.42-1.46,0.78-2.93,1.16-4.4c0.19-0.73,0.35-1.47,0.53-2.21l0.52-2.21l0.14-0.59l-0.46-0.4
		c-1.14-1-2.29-1.99-3.45-2.96c-1.18-0.96-2.33-1.94-3.53-2.87c-0.6-0.47-1.18-0.95-1.79-1.4l-1.82-1.37
		c-1.23-0.9-2.46-1.8-3.74-2.62c0.99,1.17,2.04,2.27,3.08,3.38l1.6,1.63c0.53,0.54,1.08,1.06,1.62,1.6c1.08,1.07,2.2,2.09,3.3,3.13
		c0.96,0.89,1.95,1.77,2.93,2.64l-0.35,1.63c-0.15,0.74-0.32,1.48-0.46,2.23c-0.28,1.49-0.59,2.98-0.83,4.47
		c-0.12,0.75-0.26,1.49-0.37,2.25l-0.33,2.26c-0.1,0.76-0.2,1.51-0.29,2.27c-0.08,0.76-0.17,1.52-0.22,2.28
		c0.28-0.72,0.53-1.44,0.77-2.16c0.25-0.72,0.47-1.45,0.71-2.17l0.66-2.18C139.75,54.5,139.94,53.77,140.15,53.04z"/>
	<path class="st0" d="M166.9,60.35l-1.87-1.3c-0.62-0.44-1.26-0.84-1.89-1.27c-1.25-0.85-2.55-1.64-3.82-2.46
		c-0.64-0.41-1.29-0.79-1.94-1.19l-1.94-1.18l-0.52-0.31l-0.53,0.32c-1.3,0.78-2.6,1.56-3.88,2.37c-1.28,0.82-2.57,1.61-3.82,2.47
		c-0.63,0.42-1.27,0.84-1.89,1.27l-1.87,1.3c-1.23,0.89-2.47,1.78-3.65,2.75c1.42-0.58,2.79-1.24,4.17-1.89l2.04-1.02
		c0.68-0.34,1.35-0.7,2.02-1.05c1.35-0.69,2.66-1.45,4-2.17c1.15-0.64,2.28-1.31,3.41-1.97l1.45,0.84c0.66,0.38,1.31,0.77,1.97,1.13
		c1.33,0.72,2.65,1.48,4,2.17c0.68,0.35,1.34,0.71,2.02,1.05l2.04,1.01c0.69,0.32,1.37,0.66,2.07,0.97c0.69,0.31,1.39,0.63,2.1,0.91
		c-0.59-0.48-1.2-0.94-1.81-1.4C168.14,61.23,167.52,60.8,166.9,60.35z"/>
</g>
<g>
	<path class="st0" d="M199.92,32.49c-0.36,0.03-0.66,0.28-0.77,0.62c-0.11,0.34-0.01,0.72,0.26,0.96l9.71,8.54l-2.83,12.62
		c-0.08,0.35,0.06,0.72,0.35,0.93c0.29,0.21,0.68,0.23,0.99,0.05l11.13-6.6l11.13,6.59c0.31,0.18,0.7,0.16,0.99-0.05
		c0.29-0.21,0.43-0.58,0.35-0.93l-2.84-12.62l9.71-8.55c0.27-0.24,0.37-0.61,0.26-0.96c-0.11-0.34-0.42-0.59-0.78-0.62l-12.88-1.2
		l-5.13-11.88c-0.14-0.33-0.47-0.54-0.83-0.54s-0.69,0.21-0.83,0.55l-5.12,11.88L199.92,32.49z"/>
	<path class="st0" d="M244.06,33.25c-0.62,0.44-1.23,0.89-1.85,1.34l-1.82,1.38c-0.6,0.46-1.19,0.94-1.79,1.41
		c-1.2,0.93-2.35,1.92-3.53,2.88c-0.59,0.48-1.15,0.99-1.73,1.48l-1.72,1.48l-0.46,0.39l0.14,0.6c0.34,1.48,0.68,2.95,1.05,4.42
		c0.39,1.47,0.74,2.94,1.17,4.4c0.21,0.73,0.4,1.46,0.62,2.19l0.66,2.18c0.47,1.45,0.93,2.9,1.49,4.32
		c-0.11-1.53-0.31-3.04-0.51-4.55l-0.33-2.25c-0.11-0.75-0.25-1.5-0.37-2.25c-0.24-1.5-0.56-2.98-0.84-4.47
		c-0.26-1.29-0.53-2.57-0.82-3.86l1.24-1.12c0.56-0.51,1.13-1.01,1.69-1.53c1.1-1.04,2.22-2.06,3.3-3.13
		c0.54-0.53,1.09-1.05,1.62-1.6l1.59-1.63c0.52-0.56,1.05-1.1,1.56-1.67c0.51-0.56,1.03-1.13,1.52-1.71
		C245.31,32.38,244.68,32.81,244.06,33.25z"/>
	<path class="st0" d="M221.25,15.54l0.75,2.15c0.25,0.72,0.53,1.42,0.79,2.14c0.51,1.43,1.1,2.83,1.65,4.24
		c0.28,0.71,0.58,1.4,0.87,2.1l0.88,2.1l0.23,0.56l0.61,0.06c1.51,0.14,3.02,0.27,4.53,0.37c1.51,0.08,3.02,0.21,4.54,0.25
		c0.76,0.03,1.52,0.07,2.28,0.08l2.28,0.04c1.52,0,3.04,0.01,4.57-0.08c-1.49-0.37-2.99-0.64-4.48-0.92l-2.25-0.38
		c-0.75-0.13-1.5-0.23-2.25-0.34c-1.5-0.24-3.01-0.39-4.51-0.59c-1.31-0.16-2.61-0.29-3.92-0.42l-0.68-1.52
		c-0.31-0.69-0.61-1.39-0.93-2.07c-0.65-1.37-1.27-2.75-1.96-4.1c-0.34-0.68-0.67-1.36-1.02-2.04l-1.06-2.02
		c-0.37-0.67-0.72-1.34-1.1-2c-0.38-0.66-0.76-1.32-1.16-1.97c0.2,0.74,0.42,1.47,0.64,2.2C220.77,14.1,221.02,14.81,221.25,15.54z"
		/>
	<path class="st0" d="M196.85,29.64l2.28-0.04c0.76-0.01,1.51-0.06,2.27-0.09c1.52-0.05,3.03-0.17,4.54-0.26
		c0.75-0.04,1.51-0.12,2.26-0.18l2.27-0.19l0.6-0.05l0.24-0.56c0.6-1.39,1.19-2.79,1.75-4.2c0.55-1.41,1.13-2.81,1.64-4.24
		c0.26-0.71,0.54-1.42,0.78-2.14l0.75-2.15c0.47-1.45,0.95-2.89,1.34-4.38c-0.81,1.3-1.53,2.64-2.26,3.98l-1.05,2.02
		c-0.35,0.67-0.68,1.36-1.02,2.04c-0.69,1.35-1.3,2.74-1.96,4.11c-0.55,1.19-1.08,2.4-1.6,3.6l-1.66,0.17
		c-0.75,0.08-1.51,0.15-2.26,0.25c-1.5,0.2-3.01,0.36-4.51,0.6c-0.75,0.11-1.5,0.21-2.25,0.34l-2.25,0.38
		c-0.75,0.14-1.5,0.27-2.24,0.43c-0.75,0.15-1.49,0.31-2.24,0.49c0.76,0.04,1.53,0.06,2.29,0.07
		C195.33,29.65,196.09,29.64,196.85,29.64z"/>
	<path class="st0" d="M204,53.04c0.42-1.46,0.78-2.93,1.16-4.4c0.19-0.73,0.35-1.47,0.53-2.21l0.52-2.21l0.14-0.59l-0.46-0.4
		c-1.14-1-2.29-1.99-3.45-2.96c-1.18-0.96-2.33-1.94-3.53-2.87c-0.6-0.47-1.19-0.95-1.79-1.4l-1.82-1.37
		c-1.23-0.9-2.46-1.8-3.74-2.62c0.99,1.17,2.04,2.27,3.08,3.38l1.6,1.63c0.53,0.54,1.08,1.06,1.62,1.6c1.08,1.07,2.2,2.09,3.3,3.13
		c0.96,0.89,1.95,1.77,2.93,2.64l-0.35,1.63c-0.15,0.74-0.32,1.48-0.46,2.23c-0.28,1.49-0.59,2.98-0.83,4.47
		c-0.12,0.75-0.26,1.49-0.37,2.25l-0.33,2.26c-0.1,0.76-0.2,1.51-0.29,2.27c-0.08,0.76-0.17,1.52-0.22,2.28
		c0.28-0.72,0.53-1.44,0.77-2.16c0.25-0.72,0.47-1.45,0.71-2.17l0.66-2.18C203.6,54.5,203.79,53.77,204,53.04z"/>
	<path class="st0" d="M230.75,60.35l-1.87-1.3c-0.62-0.44-1.26-0.84-1.89-1.27c-1.25-0.85-2.55-1.64-3.82-2.46
		c-0.64-0.41-1.29-0.79-1.94-1.19l-1.94-1.18l-0.52-0.31l-0.53,0.32c-1.3,0.78-2.6,1.56-3.88,2.37c-1.28,0.82-2.57,1.61-3.82,2.47
		c-0.63,0.42-1.27,0.84-1.89,1.27l-1.87,1.3c-1.23,0.89-2.47,1.78-3.65,2.75c1.42-0.58,2.79-1.24,4.17-1.89l2.04-1.02
		c0.68-0.34,1.34-0.7,2.02-1.05c1.36-0.69,2.67-1.45,4-2.17c1.15-0.64,2.28-1.31,3.41-1.97l1.45,0.84c0.66,0.38,1.31,0.77,1.97,1.13
		c1.33,0.72,2.65,1.48,4,2.17c0.67,0.35,1.34,0.71,2.02,1.05l2.04,1.01c0.69,0.32,1.37,0.66,2.07,0.97c0.69,0.31,1.39,0.63,2.1,0.91
		c-0.59-0.48-1.2-0.94-1.81-1.4C231.99,61.23,231.37,60.8,230.75,60.35z"/>
</g>
<g>
	<path class="st0" d="M263.77,32.49c-0.36,0.03-0.66,0.28-0.77,0.62c-0.11,0.34-0.01,0.72,0.26,0.96l9.71,8.54l-2.83,12.62
		c-0.08,0.35,0.06,0.72,0.35,0.93c0.29,0.21,0.68,0.23,0.99,0.05l11.13-6.6l11.13,6.59c0.31,0.18,0.7,0.16,0.99-0.05
		c0.29-0.21,0.43-0.58,0.35-0.93l-2.85-12.62l9.71-8.55c0.27-0.24,0.37-0.61,0.26-0.96c-0.11-0.34-0.42-0.59-0.78-0.62l-12.88-1.2
		l-5.14-11.88c-0.14-0.33-0.47-0.54-0.83-0.54c-0.36,0-0.69,0.21-0.83,0.55l-5.12,11.88L263.77,32.49z"/>
	<path class="st0" d="M307.91,33.25c-0.62,0.44-1.23,0.89-1.85,1.34l-1.82,1.38c-0.61,0.46-1.19,0.94-1.79,1.41
		c-1.2,0.93-2.35,1.92-3.52,2.88c-0.59,0.48-1.15,0.99-1.73,1.48l-1.72,1.48l-0.46,0.39l0.13,0.6c0.34,1.48,0.68,2.95,1.05,4.42
		c0.39,1.47,0.74,2.94,1.17,4.4c0.21,0.73,0.4,1.46,0.62,2.19l0.66,2.18c0.47,1.45,0.93,2.9,1.49,4.32
		c-0.11-1.53-0.31-3.04-0.51-4.55l-0.33-2.25c-0.11-0.75-0.25-1.5-0.37-2.25c-0.24-1.5-0.56-2.98-0.84-4.47
		c-0.26-1.29-0.53-2.57-0.82-3.86l1.24-1.12c0.56-0.51,1.13-1.01,1.69-1.53c1.1-1.04,2.22-2.06,3.3-3.13
		c0.54-0.53,1.09-1.05,1.62-1.6l1.6-1.63c0.52-0.56,1.05-1.1,1.56-1.67c0.51-0.56,1.02-1.13,1.52-1.71
		C309.16,32.38,308.53,32.81,307.91,33.25z"/>
	<path class="st0" d="M285.11,15.54l0.75,2.15c0.25,0.72,0.53,1.42,0.79,2.14c0.51,1.43,1.1,2.83,1.65,4.24
		c0.28,0.71,0.58,1.4,0.88,2.1l0.88,2.1l0.23,0.56l0.61,0.06c1.51,0.14,3.02,0.27,4.53,0.37c1.51,0.08,3.02,0.21,4.54,0.25
		c0.76,0.03,1.52,0.07,2.28,0.08l2.28,0.04c1.52,0,3.04,0.01,4.57-0.08c-1.49-0.37-2.98-0.64-4.48-0.92l-2.25-0.38
		c-0.75-0.13-1.5-0.23-2.25-0.34c-1.5-0.24-3.01-0.39-4.51-0.59c-1.31-0.16-2.61-0.29-3.92-0.42l-0.68-1.52
		c-0.31-0.69-0.61-1.39-0.93-2.07c-0.65-1.37-1.27-2.75-1.96-4.1c-0.34-0.68-0.67-1.36-1.02-2.04l-1.06-2.02
		c-0.37-0.67-0.72-1.34-1.1-2c-0.38-0.66-0.76-1.32-1.16-1.97c0.2,0.74,0.42,1.47,0.64,2.2C284.63,14.1,284.87,14.81,285.11,15.54z"
		/>
	<path class="st0" d="M260.7,29.64l2.28-0.04c0.76-0.01,1.51-0.06,2.27-0.09c1.52-0.05,3.03-0.17,4.54-0.26
		c0.76-0.04,1.51-0.12,2.27-0.18l2.27-0.19l0.6-0.05l0.24-0.56c0.6-1.39,1.19-2.79,1.75-4.2c0.55-1.41,1.13-2.81,1.64-4.24
		c0.26-0.71,0.53-1.42,0.78-2.14l0.74-2.15c0.47-1.45,0.95-2.89,1.34-4.38c-0.81,1.3-1.53,2.64-2.26,3.98l-1.05,2.02
		c-0.35,0.67-0.68,1.36-1.02,2.04c-0.69,1.35-1.3,2.74-1.96,4.11c-0.55,1.19-1.08,2.4-1.6,3.6l-1.66,0.17
		c-0.75,0.08-1.51,0.15-2.26,0.25c-1.5,0.2-3.01,0.36-4.51,0.6c-0.75,0.11-1.5,0.21-2.25,0.34l-2.25,0.38
		c-0.75,0.14-1.5,0.27-2.24,0.43c-0.75,0.15-1.49,0.31-2.24,0.49c0.76,0.04,1.53,0.06,2.29,0.07
		C259.18,29.65,259.94,29.64,260.7,29.64z"/>
	<path class="st0" d="M267.85,53.04c0.42-1.46,0.78-2.93,1.16-4.4c0.19-0.73,0.35-1.47,0.53-2.21l0.52-2.21l0.14-0.59l-0.46-0.4
		c-1.14-1-2.29-1.99-3.45-2.96c-1.18-0.96-2.33-1.94-3.53-2.87c-0.6-0.47-1.19-0.95-1.79-1.4l-1.82-1.37
		c-1.23-0.9-2.46-1.8-3.74-2.62c0.99,1.17,2.04,2.27,3.08,3.38l1.6,1.63c0.53,0.54,1.08,1.06,1.62,1.6c1.08,1.07,2.2,2.09,3.3,3.13
		c0.96,0.89,1.95,1.77,2.93,2.64l-0.35,1.63c-0.15,0.74-0.32,1.48-0.46,2.23c-0.28,1.49-0.59,2.98-0.83,4.47
		c-0.12,0.75-0.26,1.49-0.37,2.25l-0.33,2.26c-0.1,0.76-0.2,1.51-0.29,2.27c-0.08,0.76-0.17,1.52-0.22,2.28
		c0.28-0.72,0.53-1.44,0.77-2.16c0.25-0.72,0.48-1.45,0.71-2.17l0.66-2.18C267.45,54.5,267.64,53.77,267.85,53.04z"/>
	<path class="st0" d="M294.61,60.35l-1.87-1.3c-0.62-0.44-1.26-0.84-1.89-1.27c-1.25-0.85-2.55-1.64-3.82-2.46
		c-0.64-0.41-1.29-0.79-1.94-1.19l-1.94-1.18l-0.52-0.31l-0.53,0.32c-1.3,0.78-2.6,1.56-3.88,2.37c-1.28,0.82-2.57,1.61-3.82,2.47
		c-0.63,0.42-1.27,0.84-1.89,1.27l-1.87,1.3c-1.23,0.89-2.47,1.78-3.65,2.75c1.42-0.58,2.79-1.24,4.17-1.89l2.04-1.02
		c0.68-0.34,1.35-0.7,2.02-1.05c1.35-0.69,2.66-1.45,4-2.17c1.15-0.64,2.28-1.31,3.41-1.97l1.45,0.84c0.66,0.38,1.31,0.77,1.97,1.13
		c1.33,0.72,2.65,1.48,4,2.17c0.67,0.35,1.34,0.71,2.02,1.05l2.04,1.01c0.69,0.32,1.37,0.66,2.07,0.97c0.69,0.31,1.39,0.63,2.1,0.91
		c-0.6-0.48-1.2-0.94-1.81-1.4C295.84,61.23,295.22,60.8,294.61,60.35z"/>
</g>
</svg>
